# Blender v2.79 (sub 0) OBJ File: 'phantom.blend'
# www.blender.org
mtllib phantom.mtl
o Cone_Cone.001
v 0.000000 0.000000 -1.000000
v 0.195090 0.000000 -0.980785
v 0.382683 0.000000 -0.923880
v 0.555570 0.000000 -0.831470
v 0.707107 0.000000 -0.707107
v 0.831470 0.000000 -0.555570
v 0.923880 0.000000 -0.382683
v 0.980785 0.000000 -0.195090
v 1.000000 0.000000 -0.000000
v 0.980785 0.000000 0.195090
v 0.923880 0.000000 0.382683
v 0.831470 0.000000 0.555570
v 0.707107 0.000000 0.707107
v 0.555570 0.000000 0.831470
v 0.382683 0.000000 0.923880
v 0.195090 0.000000 0.980785
v -0.000000 0.000000 1.000000
v -0.195091 0.000000 0.980785
v -0.382684 0.000000 0.923879
v -0.555571 0.000000 0.831469
v -0.707107 0.000000 0.707106
v -0.831470 0.000000 0.555570
v -0.923880 0.000000 0.382683
v 0.000000 2.000000 0.000000
v -0.980785 0.000000 0.195089
v -1.000000 0.000000 -0.000001
v -0.980785 0.000000 -0.195091
v -0.923879 0.000000 -0.382684
v -0.831469 0.000000 -0.555571
v -0.707106 0.000000 -0.707108
v -0.555569 0.000000 -0.831470
v -0.382682 0.000000 -0.923880
v -0.195089 0.000000 -0.980786
vn 0.0878 0.4455 -0.8910
vn 0.2599 0.4455 -0.8567
vn 0.4220 0.4455 -0.7896
vn 0.5680 0.4455 -0.6921
vn 0.6921 0.4455 -0.5680
vn 0.7896 0.4455 -0.4220
vn 0.8567 0.4455 -0.2599
vn 0.8910 0.4455 -0.0878
vn 0.8910 0.4455 0.0878
vn 0.8567 0.4455 0.2599
vn 0.7896 0.4455 0.4220
vn 0.6921 0.4455 0.5680
vn 0.5680 0.4455 0.6921
vn 0.4220 0.4455 0.7896
vn 0.2599 0.4455 0.8567
vn 0.0878 0.4455 0.8910
vn -0.0878 0.4455 0.8910
vn -0.2599 0.4455 0.8567
vn -0.4220 0.4455 0.7896
vn -0.5680 0.4455 0.6921
vn -0.6921 0.4455 0.5680
vn -0.7896 0.4455 0.4220
vn -0.8567 0.4455 0.2599
vn -0.8910 0.4455 0.0878
vn -0.8910 0.4455 -0.0878
vn -0.8567 0.4455 -0.2599
vn -0.7896 0.4455 -0.4220
vn -0.6921 0.4455 -0.5680
vn -0.5680 0.4455 -0.6921
vn -0.4220 0.4455 -0.7896
vn -0.2599 0.4455 -0.8567
vn -0.0878 0.4455 -0.8910
vn 0.0000 -1.0000 0.0000
usemtl BlackMaterial
s off
f 1//1 24//1 2//1
f 2//2 24//2 3//2
f 3//3 24//3 4//3
f 4//4 24//4 5//4
f 5//5 24//5 6//5
f 6//6 24//6 7//6
f 7//7 24//7 8//7
f 8//8 24//8 9//8
f 9//9 24//9 10//9
f 10//10 24//10 11//10
f 11//11 24//11 12//11
f 12//12 24//12 13//12
f 13//13 24//13 14//13
f 14//14 24//14 15//14
f 15//15 24//15 16//15
f 16//16 24//16 17//16
f 17//17 24//17 18//17
f 18//18 24//18 19//18
f 19//19 24//19 20//19
f 20//20 24//20 21//20
f 21//21 24//21 22//21
f 22//22 24//22 23//22
f 23//23 24//23 25//23
f 25//24 24//24 26//24
f 26//25 24//25 27//25
f 27//26 24//26 28//26
f 28//27 24//27 29//27
f 29//28 24//28 30//28
f 30//29 24//29 31//29
f 31//30 24//30 32//30
f 32//31 24//31 33//31
f 33//32 24//32 1//32
f 8//33 16//33 25//33
f 33//33 1//33 2//33
f 2//33 3//33 4//33
f 4//33 5//33 6//33
f 6//33 7//33 4//33
f 7//33 8//33 4//33
f 8//33 9//33 10//33
f 10//33 11//33 8//33
f 11//33 12//33 8//33
f 12//33 13//33 16//33
f 13//33 14//33 16//33
f 14//33 15//33 16//33
f 16//33 17//33 18//33
f 18//33 19//33 20//33
f 20//33 21//33 22//33
f 22//33 23//33 25//33
f 25//33 26//33 27//33
f 27//33 28//33 29//33
f 29//33 30//33 33//33
f 30//33 31//33 33//33
f 31//33 32//33 33//33
f 33//33 2//33 4//33
f 16//33 18//33 25//33
f 18//33 20//33 25//33
f 20//33 22//33 25//33
f 25//33 27//33 33//33
f 27//33 29//33 33//33
f 33//33 4//33 8//33
f 8//33 12//33 16//33
f 33//33 8//33 25//33
o Head_Icosphere
v 0.000000 2.000000 0.000000
v 0.260334 2.276390 0.363627
v -0.265382 2.276390 0.359959
v -0.424350 2.276392 -0.141163
v 0.003125 2.276390 -0.447201
v 0.426279 2.276390 -0.135221
v -0.003125 2.723610 0.447201
v -0.426279 2.723610 0.135221
v -0.260334 2.723610 -0.363627
v 0.265382 2.723610 -0.359959
v 0.424350 2.723608 0.141163
v 0.000000 3.000000 0.000000
v -0.155987 2.074673 0.211577
v 0.153020 2.074673 0.213733
v -0.002967 2.237131 0.425313
v 0.403580 2.237132 0.134253
v 0.250559 2.074673 -0.079480
v -0.249426 2.074674 -0.082973
v -0.405415 2.237132 0.128604
v 0.001837 2.074673 -0.262856
v -0.247591 2.237132 -0.345831
v 0.252397 2.237131 -0.342339
v 0.402448 2.500000 0.296708
v 0.499988 2.500000 0.003493
v -0.157825 2.500000 0.474438
v 0.151185 2.500000 0.476595
v -0.499988 2.500000 -0.003493
v -0.406551 2.500000 0.291061
v -0.151185 2.500000 -0.476595
v -0.402448 2.500000 -0.296708
v 0.406551 2.500000 -0.291061
v 0.157825 2.500000 -0.474438
v 0.247591 2.762868 0.345831
v -0.252397 2.762869 0.342339
v -0.403580 2.762868 -0.134253
v 0.002967 2.762869 -0.425313
v 0.405415 2.762868 -0.128604
v -0.001837 2.925327 0.262856
v 0.249426 2.925326 0.082973
v -0.250559 2.925327 0.079480
v -0.153020 2.925327 -0.213733
v 0.155987 2.925327 -0.211577
v -0.021013 3.332376 -0.905516
vn -0.0023 -0.9435 0.3313
vn 0.5798 -0.6617 0.4754
vn -0.3158 -0.9435 0.1002
vn -0.1929 -0.9435 -0.2694
vn 0.1966 -0.9435 -0.2667
vn 0.7741 -0.3304 0.5400
vn -0.2743 -0.3304 0.9031
vn -0.9437 -0.3304 0.0182
vn -0.3089 -0.3304 -0.8919
vn 0.7528 -0.3304 -0.5694
vn 0.5775 -0.1256 0.8067
vn -0.5887 -0.1256 0.7985
vn -0.9414 -0.1256 -0.3131
vn 0.0069 -0.1256 -0.9921
vn 0.9456 -0.1256 -0.3000
vn 0.1897 0.6617 0.7254
vn -0.6313 0.6617 0.4045
vn -0.5798 0.6617 -0.4754
vn 0.2729 0.6617 -0.6983
vn 0.7485 0.6617 0.0438
vn 0.3158 0.9435 -0.1002
vn 0.5786 0.7947 -0.1836
vn 0.5864 0.6617 -0.4672
vn 0.0023 0.9435 -0.3313
vn 0.0042 0.7947 -0.6070
vn -0.2631 0.6617 -0.7021
vn -0.3144 0.9435 -0.1046
vn -0.5760 0.7947 -0.1916
vn -0.7490 0.6617 0.0333
vn -0.1966 0.9435 0.2667
vn -0.3602 0.7947 0.4886
vn -0.1998 0.6617 0.7227
vn 0.1929 0.9435 0.2694
vn 0.3534 0.7947 0.4936
vn 0.6256 0.6617 0.4133
vn 0.9437 0.3304 -0.0182
vn 0.9363 0.1876 -0.2970
vn 0.7816 0.3304 -0.5291
vn 0.0069 0.1876 -0.9822
vn -0.7741 0.3304 -0.5400
vn -0.9320 0.1876 -0.3100
vn -0.9433 0.3304 -0.0313
vn -0.7528 0.3304 0.5694
vn -0.5829 0.1876 0.7906
vn -0.3213 0.3304 0.8875
vn 0.3089 0.3304 0.8919
vn 0.5718 0.1876 0.7987
vn 0.7448 0.3304 0.5798
vn 0.5887 0.1256 -0.7985
vn 0.5829 -0.1876 -0.7906
vn 0.3213 -0.3304 -0.8875
vn -0.5775 0.1256 -0.8067
vn -0.5718 -0.1876 -0.7987
vn -0.7448 -0.3304 -0.5798
vn -0.9456 0.1256 0.3000
vn -0.9363 -0.1876 0.2970
vn -0.7816 -0.3304 0.5291
vn -0.0069 0.1256 0.9921
vn -0.0069 -0.1876 0.9822
vn 0.2617 -0.3304 0.9068
vn 0.9414 0.1256 0.3131
vn 0.9320 -0.1876 0.3100
vn 0.9433 -0.3304 0.0313
vn 0.6313 -0.6617 -0.4045
vn 0.3602 -0.7947 -0.4886
vn 0.1998 -0.6617 -0.7227
vn -0.1897 -0.6617 -0.7254
vn -0.3534 -0.7947 -0.4936
vn -0.6256 -0.6617 -0.4133
vn -0.7485 -0.6617 -0.0438
vn -0.5786 -0.7947 0.1836
vn -0.5864 -0.6617 0.4672
vn 0.7490 -0.6617 -0.0333
vn 0.5760 -0.7947 0.1916
vn 0.3144 -0.9435 0.1046
vn -0.2729 -0.6617 0.6983
vn -0.0042 -0.7947 0.6070
vn 0.2631 -0.6617 0.7021
vn 0.2743 0.3304 -0.9031
vn -0.2617 0.3304 -0.9068
usemtl BlackMaterial
s off
f 34//34 47//34 46//34
f 35//35 47//35 49//35
f 34//36 46//36 51//36
f 34//37 51//37 53//37
f 34//38 53//38 50//38
f 35//39 49//39 56//39
f 36//40 48//40 58//40
f 37//41 52//41 60//41
f 38//42 54//42 62//42
f 39//43 55//43 64//43
f 35//44 56//44 59//44
f 36//45 58//45 61//45
f 37//46 60//46 63//46
f 38//47 62//47 65//47
f 39//48 64//48 57//48
f 40//49 66//49 71//49
f 41//50 67//50 73//50
f 42//51 68//51 74//51
f 43//52 69//52 75//52
f 44//53 70//53 72//53
f 72//54 75//54 45//54
f 72//55 70//55 75//55
f 70//56 43//56 75//56
f 75//57 74//57 45//57
f 75//58 69//58 74//58
f 69//59 42//59 74//59
f 74//60 73//60 45//60
f 74//61 68//61 73//61
f 68//62 41//62 73//62
f 73//63 71//63 45//63
f 73//64 67//64 71//64
f 67//65 40//65 71//65
f 71//66 72//66 45//66
f 71//67 66//67 72//67
f 66//68 44//68 72//68
f 57//69 70//69 44//69
f 57//70 64//70 70//70
f 64//71 43//71 70//71
f 65//72 62//72 69//72
f 63//73 68//73 42//73
f 63//74 60//74 68//74
f 60//75 41//75 68//75
f 61//76 67//76 41//76
f 61//77 58//77 67//77
f 58//78 40//78 67//78
f 59//79 66//79 40//79
f 59//80 56//80 66//80
f 56//81 44//81 66//81
f 64//82 65//82 43//82
f 64//83 55//83 65//83
f 55//84 38//84 65//84
f 62//85 63//85 42//85
f 62//86 54//86 63//86
f 54//87 37//87 63//87
f 60//88 61//88 41//88
f 60//89 52//89 61//89
f 52//90 36//90 61//90
f 58//91 59//91 40//91
f 58//92 48//92 59//92
f 48//93 35//93 59//93
f 56//94 57//94 44//94
f 56//95 49//95 57//95
f 49//96 39//96 57//96
f 50//97 55//97 39//97
f 50//98 53//98 55//98
f 53//99 38//99 55//99
f 53//100 54//100 38//100
f 53//101 51//101 54//101
f 51//102 37//102 54//102
f 51//103 52//103 37//103
f 51//104 46//104 52//104
f 46//105 36//105 52//105
f 49//106 50//106 39//106
f 49//107 47//107 50//107
f 47//108 34//108 50//108
f 46//109 48//109 36//109
f 46//110 47//110 48//110
f 47//111 35//111 48//111
usemtl RedMaterial
f 65//112 69//112 43//112
f 62//113 42//113 69//113
o Body_Cone
v 0.000000 1.500000 -0.500000
v 0.156072 1.500000 -0.490393
v 0.306147 1.500000 -0.461940
v 0.444456 1.500000 -0.415735
v 0.565685 1.500000 -0.353553
v 0.665176 1.500000 -0.277785
v 0.739104 1.500000 -0.191342
v 0.784628 1.500000 -0.097545
v 0.800000 1.500000 -0.000000
v 0.784628 1.500000 0.097545
v 0.739104 1.500000 0.191342
v 0.665176 1.500000 0.277785
v 0.565685 1.500000 0.353553
v 0.444456 1.500000 0.415735
v 0.306147 1.500000 0.461940
v 0.156072 1.500000 0.490393
v -0.000000 1.500000 0.500000
v -0.156073 1.500000 0.490393
v -0.306147 1.500000 0.461940
v -0.444457 1.500000 0.415735
v -0.565686 1.500000 0.353553
v -0.665176 1.500000 0.277785
v -0.739104 1.500000 0.191341
v 0.000000 2.500000 0.000000
v -0.784628 1.500000 0.097545
v -0.800000 1.500000 -0.000000
v -0.784628 1.500000 -0.097546
v -0.739103 1.500000 -0.191342
v -0.665175 1.500000 -0.277786
v -0.565685 1.500000 -0.353554
v -0.444455 1.500000 -0.415735
v -0.306146 1.500000 -0.461940
v -0.156071 1.500000 -0.490393
vn 0.0550 0.4465 -0.8931
vn 0.1659 0.4549 -0.8749
vn 0.2794 0.4718 -0.8363
vn 0.3960 0.4970 -0.7721
vn 0.5140 0.5294 -0.6749
vn 0.6267 0.5657 -0.5359
vn 0.7202 0.5992 -0.3496
vn 0.7750 0.6200 -0.1221
vn 0.7750 0.6200 0.1221
vn 0.7202 0.5992 0.3496
vn 0.6267 0.5657 0.5359
vn 0.5140 0.5294 0.6749
vn 0.3960 0.4970 0.7721
vn 0.2794 0.4718 0.8363
vn 0.1659 0.4549 0.8749
vn 0.0550 0.4465 0.8931
vn -0.0550 0.4465 0.8931
vn -0.1659 0.4549 0.8749
vn -0.2794 0.4718 0.8363
vn -0.3960 0.4970 0.7721
vn -0.5140 0.5294 0.6749
vn -0.6267 0.5657 0.5359
vn -0.7202 0.5992 0.3496
vn -0.7750 0.6200 0.1221
vn -0.7750 0.6200 -0.1221
vn -0.7202 0.5992 -0.3496
vn -0.6267 0.5657 -0.5359
vn -0.5140 0.5294 -0.6749
vn -0.3960 0.4970 -0.7721
vn -0.2794 0.4718 -0.8363
vn -0.1659 0.4549 -0.8749
vn -0.0550 0.4465 -0.8931
vn 0.0000 -1.0000 0.0000
usemtl BlackMaterial
s off
f 77//114 100//114 78//114
f 78//115 100//115 79//115
f 79//116 100//116 80//116
f 80//117 100//117 81//117
f 81//118 100//118 82//118
f 82//119 100//119 83//119
f 83//120 100//120 84//120
f 84//121 100//121 85//121
f 85//122 100//122 86//122
f 86//123 100//123 87//123
f 87//124 100//124 88//124
f 88//125 100//125 89//125
f 89//126 100//126 90//126
f 90//127 100//127 91//127
f 91//128 100//128 92//128
f 92//129 100//129 93//129
f 93//130 100//130 94//130
f 94//131 100//131 95//131
f 95//132 100//132 96//132
f 96//133 100//133 97//133
f 97//134 100//134 98//134
f 98//135 100//135 99//135
f 99//136 100//136 101//136
f 101//137 100//137 102//137
f 102//138 100//138 103//138
f 103//139 100//139 104//139
f 104//140 100//140 105//140
f 105//141 100//141 106//141
f 106//142 100//142 107//142
f 107//143 100//143 108//143
f 108//144 100//144 109//144
f 109//145 100//145 77//145
f 84//146 92//146 101//146
f 109//146 77//146 78//146
f 78//146 79//146 80//146
f 80//146 81//146 82//146
f 82//146 83//146 80//146
f 83//146 84//146 80//146
f 84//146 85//146 86//146
f 86//146 87//146 84//146
f 87//146 88//146 84//146
f 88//146 89//146 92//146
f 89//146 90//146 92//146
f 90//146 91//146 92//146
f 92//146 93//146 94//146
f 94//146 95//146 96//146
f 96//146 97//146 98//146
f 98//146 99//146 101//146
f 101//146 102//146 103//146
f 103//146 104//146 105//146
f 105//146 106//146 109//146
f 106//146 107//146 109//146
f 107//146 108//146 109//146
f 109//146 78//146 80//146
f 92//146 94//146 101//146
f 94//146 96//146 101//146
f 96//146 98//146 101//146
f 101//146 103//146 109//146
f 103//146 105//146 109//146
f 109//146 80//146 84//146
f 84//146 88//146 92//146
f 109//146 84//146 101//146
